Coordinates
version=1
nRows=7
nColumns=63
inDegrees=yes

Units are S.I. units (second, meters, Newtons, ...)
If the header above contains a line with 'inDegrees', this indicates whether rotational values are in degrees (yes) or radians (no).

endheader
time	pelvis_tilt	pelvis_list	pelvis_rotation	pelvis_tx	pelvis_ty	pelvis_tz	hip_flexion_r	hip_adduction_r	hip_rotation_r	knee_angle_r	knee_angle_r_beta	ankle_angle_r	subtalar_angle_r	mtp_angle_r	hip_flexion_l	hip_adduction_l	hip_rotation_l	knee_angle_l	knee_angle_l_beta	ankle_angle_l	subtalar_angle_l	mtp_angle_l	L5_S1_Flex_Ext	L5_S1_Lat_Bending	L5_S1_axial_rotation	L4_L5_Flex_Ext	L4_L5_Lat_Bending	L4_L5_axial_rotation	L3_L4_Flex_Ext	L3_L4_Lat_Bending	L3_L4_axial_rotation	L2_L3_Flex_Ext	L2_L3_Lat_Bending	L2_L3_axial_rotation	L1_L2_Flex_Ext	L1_L2_Lat_Bending	L1_L2_axial_rotation	L1_T12_Flex_Ext	L1_T12_Lat_Bending	L1_T12_axial_rotation	Abs_r3	Abs_r2	Abs_r1	Abs_t1	Abs_t2	neck_flexion	neck_bending	neck_rotation	arm_flex_r	arm_add_r	arm_rot_r	elbow_flex_r	pro_sup_r	wrist_flex_r	wrist_dev_r	arm_flex_l	arm_add_l	arm_rot_l	elbow_flex_l	pro_sup_l	wrist_flex_l	wrist_dev_l
      0.00800000	    -41.01686195	      3.08688350	     -1.22740753	     -0.18591530	      1.09465080	     -0.00886577	     80.40764972	     -2.71784260	     -1.42463616	     45.54527853	      0.79491507	     10.43237628	      0.36064862	      0.00000000	    112.46774651	     -4.67067026	      4.91800289	    112.63126545	      1.96578642	     17.84024870	     -1.54729803	      0.00000000	     -0.07786829	     -0.47935074	      0.14387322	     -0.14460920	     -0.63753649	      0.15286530	     -0.12792981	     -1.16549339	      0.15286530	     -0.08899567	     -1.16549339	      0.12588907	     -0.07230849	     -0.97749203	      0.11689699	     -0.04449394	     -0.74251430	      0.10790492	     -0.55620540	     -5.42251147	      0.80017970	      0.00000000	      0.00000000	     -0.00000000	      0.00000000	     -0.00000000	     61.28390877	     -1.65385016	     14.01648373	     29.89952164	     27.98041441	      0.00000000	      5.82622267	     65.38809105	     -7.10430026	     32.64731396	     24.86700117	     41.67241961	      0.00000000	      5.82622267
      0.01700000	    -41.01843277	      3.87864587	     -1.62573766	     -0.18487592	      1.09473018	     -0.00776198	     78.95468490	     -2.88581107	     -1.80387982	     44.56093776	      0.77773508	     10.19316817	      0.58488465	      0.00000000	    113.84974350	     -5.23119533	      4.41732971	    112.92652227	      1.97093963	     18.32260070	     -1.39149769	      0.00000000	     -0.08060011	     -0.61812494	      0.23029107	     -0.14968246	     -0.82210617	      0.24468426	     -0.13241792	     -1.50290897	      0.24468426	     -0.09211786	     -1.50290897	      0.20150468	     -0.07484526	     -1.26048037	      0.18711149	     -0.04605490	     -0.95747553	      0.17271830	     -0.57571852	     -6.99235291	      1.28080983	      0.00000000	      0.00000000	     -0.00000000	      0.00000000	     -0.00000000	     61.14955991	     -1.30749769	     13.79190089	     29.92951733	     27.95116870	      0.00000000	      5.81644329	     65.57839993	     -6.91747135	     32.60059220	     24.94617831	     41.67231935	      0.00000000	      5.81644329
      0.02500000	    -40.96915485	      4.00373113	     -1.68493769	     -0.18455479	      1.09472573	     -0.00759688	     78.64798494	     -2.91360960	     -1.77816714	     44.70682571	      0.78028131	     10.19546936	      0.61824973	      0.00000000	    114.22703803	     -5.35949593	      4.27251639	    112.92464083	      1.97090679	     18.52680266	     -1.35781386	      0.00000000	     -0.08405861	     -0.64009197	      0.23507835	     -0.15610525	     -0.85132231	      0.24977075	     -0.13809989	     -1.55631960	      0.24977075	     -0.09607059	     -1.55631960	      0.20569356	     -0.07805683	     -1.30527554	      0.19100116	     -0.04803109	     -0.99150245	      0.17630876	     -0.60042226	     -7.24084833	      1.30743525	      0.00000000	      0.00000000	     -0.00000000	      0.00000000	     -0.00000000	     60.98239031	     -1.31776438	     13.72351971	     30.15527827	     28.10600341	      0.00000000	      5.80536546	     65.48172157	     -7.01206330	     32.59363502	     25.16307668	     41.71319128	      0.00000000	      5.80536546
      0.03300000	    -40.93867766	      4.52846341	     -2.12219773	     -0.18441395	      1.09465904	     -0.00649327	     78.41671694	     -2.72698505	     -1.33885391	     44.86834146	      0.78310029	     10.52905333	      1.49667739	      0.00000000	    114.57809985	     -6.10454710	      3.93626642	    112.89352782	      1.97036376	     19.35359792	     -0.42733126	      0.00000000	     -0.08072879	     -0.71662826	      0.31983199	     -0.14992144	     -0.95311559	      0.33982149	     -0.13262933	     -1.74240995	      0.33982149	     -0.09226494	     -1.74240995	      0.27985299	     -0.07496476	     -1.46134835	      0.25986349	     -0.04612843	     -1.11005718	      0.23987399	     -0.57663768	     -8.10664222	      1.77880960	      0.00000000	      0.00000000	     -0.00000000	      0.00000000	     -0.00000000	     60.58006723	     -0.93857193	     11.78652706	     30.55420252	     27.66632075	      0.00000000	      5.75858087	     65.54997578	     -7.10760760	     32.73652895	     25.20500790	     41.79108211	      0.00000000	      5.75858087
      0.04200000	    -40.91045103	      4.56130186	     -2.23603142	     -0.18435843	      1.09471019	     -0.00627158	     78.05516414	     -2.69583345	     -1.42972076	     45.02593955	      0.78585089	     10.51356303	      1.50625297	      0.00000000	    115.09619478	     -6.30519318	      3.85911085	    112.75338798	      1.96791786	     19.50163709	     -0.44602719	      0.00000000	     -0.08117365	     -0.72380600	      0.33046319	     -0.15074758	     -0.96266198	      0.35111714	     -0.13336019	     -1.75986191	      0.35111714	     -0.09277336	     -1.75986191	      0.28915529	     -0.07537785	     -1.47598520	      0.26850134	     -0.04638262	     -1.12117550	      0.24784739	     -0.57981525	     -8.18783825	      1.83793710	      0.00000000	      0.00000000	     -0.00000000	      0.00000000	     -0.00000000	     60.49657971	     -0.94969060	     11.77016607	     30.60767618	     27.65950895	      0.00000000	      5.75665591	     65.48247286	     -7.18682972	     32.75310663	     25.27701087	     41.79585091	      0.00000000	      5.75665591
      0.05000000	    -40.87066902	      4.62583441	     -2.50045574	     -0.18433182	      1.09466047	     -0.00576990	     77.76902877	     -2.60425624	     -1.68295682	     45.41023063	      0.79255804	     10.55188376	      1.60360301	      0.00000000	    115.61754345	     -6.64148519	      3.83829351	    112.59779189	      1.96520220	     19.92429009	     -0.47158765	      0.00000000	     -0.08213586	     -0.73585253	      0.37035386	     -0.15253451	     -0.97868387	      0.39350097	     -0.13494101	     -1.78915185	      0.39350097	     -0.09387308	     -1.78915185	      0.32405963	     -0.07627136	     -1.50055049	      0.30091251	     -0.04693243	     -1.13983558	      0.27776539	     -0.58668825	     -8.32411103	      2.05979705	      0.00000000	      0.00000000	     -0.00000000	      0.00000000	     -0.00000000	     60.34971448	     -1.00144806	     11.70145979	     30.82503041	     27.63319515	      0.00000000	      5.75006284	     65.34986503	     -7.34826799	     32.82470788	     25.66916332	     41.81435730	      0.00000000	      5.75006284
      0.05800000	    -40.85748024	      4.62158556	     -2.64568089	     -0.18446140	      1.09472586	     -0.00538022	     77.48838639	     -2.54646078	     -1.78003173	     45.82146247	      0.79973539	     10.61452346	      1.73038519	      0.00000000	    116.15424858	     -6.83808262	      3.84924551	    112.29609930	      1.95993667	     20.29565555	     -0.40212844	      0.00000000	     -0.08260350	     -0.73914157	      0.38830309	     -0.15340297	     -0.98305829	      0.41257203	     -0.13570929	     -1.79714881	      0.41257203	     -0.09440754	     -1.79714881	      0.33976520	     -0.07670561	     -1.50725749	      0.31549626	     -0.04719964	     -1.14493029	      0.29122732	     -0.59002856	     -8.36131727	      2.15962529	      0.00000000	      0.00000000	     -0.00000000	      0.00000000	     -0.00000000	     60.26811457	     -1.03283137	     11.62009389	     30.91479683	     27.60245548	      0.00000000	      5.74357832	     65.25236696	     -7.47280186	     32.89299774	     25.94462348	     41.83173862	      0.00000000	      5.74357832
